# xmcd
#
# Track frame offsets:
# 150
# 25197
# 46305
# 66817
# 89729
# 109628
# 131473
# 148569
# 164859
# 182337
# 202865
#
# Disc length: 2776 seconds
#
#
# Revision: 0
# Processed by: cddbd v1.5.1PL2 Copyright (c) Steve Scherf et al.
# Submitted via: FreeRIP 2.945 
#
DISCID=950ad60b
DTITLE=Steven Curtis Chapman - For The Sake Of The Call
DYEAR=1990
DGENRE=Contemporary Christian
TTITLE0=For The Sake Of The Call
TTITLE1=What Kind Of Joy
TTITLE2=Busy Man
TTITLE3=Lost In The Shadow
TTITLE4=Higher Ways
TTITLE5=Blind Lead The Blind
TTITLE6=You Know Better
TTITLE7=When You Are A Soldier
TTITLE8=No Better Place
TTITLE9=Show Yourselves To Be
TTITLE10=For The Sake Of The Call (Reprise)
EXTD=The Sparrow Corporation
EXTT0=
EXTT1=
EXTT2=
EXTT3=
EXTT4=
EXTT5=
EXTT6=
EXTT7=
EXTT8=
EXTT9=
EXTT10=
PLAYORDER=
